<svg version="1.2" xmlns="http://www.w3.org/2000/svg" viewBox="0 0 100 116" width="86" height="100">
	<style>
		.s0 { fill: #f3f4f4 } 
	</style>
	<g id="Layer_1-2">
		<g>
			<path fill-rule="evenodd" class="s0" d="m9.64 36.84l39.66-2.66c2.92-0.2 5.44 2.01 5.64 4.93l4.06 60.52c0.2 2.92-2.01 5.45-4.93 5.65l-39.66 2.66c-2.92 0.19-5.45-2.01-5.64-4.93l-4.07-60.53c-0.19-2.92 2.02-5.45 4.94-5.64z"/>
			<path class="s0" d="m9.85 115.33c-1.4 0-2.74-0.5-3.81-1.43-1.17-1.02-1.86-2.43-1.97-3.98l-4.06-60.53c-0.21-3.19 2.21-5.96 5.4-6.17l39.66-2.66c1.55-0.1 3.04 0.4 4.2 1.42 1.17 1.02 1.86 2.43 1.97 3.98l4.06 60.53c0.1 1.55-0.4 3.04-1.42 4.2-1.02 1.17-2.43 1.86-3.98 1.97l-39.66 2.66q-0.2 0.01-0.39 0.01zm35.62-73.79q-0.17 0-0.33 0.01l-39.66 2.66c-2.64 0.18-4.64 2.47-4.47 5.11l4.06 60.53c0.18 2.64 2.48 4.64 5.11 4.47l39.66-2.66c1.28-0.09 2.45-0.66 3.29-1.63 0.84-0.96 1.26-2.2 1.17-3.48l-4.06-60.53c-0.09-1.28-0.66-2.45-1.63-3.29-0.88-0.77-1.99-1.19-3.14-1.19z"/>
			<path class="s0" d="m73.25 85.53q-0.54 0-1.08-0.1l-53.42-9.98c-1.52-0.28-2.84-1.14-3.72-2.42-0.88-1.28-1.2-2.82-0.92-4.34l10.87-58.12c0.59-3.14 3.62-5.22 6.76-4.63l53.42 9.98c3.14 0.59 5.22 3.62 4.63 6.76l-10.86 58.11c-0.28 1.52-1.14 2.84-2.42 3.72-0.98 0.67-2.11 1.02-3.26 1.02zm-42.58-78.69c-2.26 0-4.28 1.61-4.71 3.92l-10.86 58.11c-0.24 1.26 0.03 2.54 0.76 3.59 0.73 1.05 1.82 1.77 3.08 2l53.42 9.98c1.26 0.24 2.54-0.03 3.59-0.76 1.06-0.72 1.77-1.82 2-3.08l10.86-58.11c0.49-2.6-1.23-5.11-3.83-5.6l-53.42-9.97q-0.44-0.09-0.89-0.08z"/>
			<path fill-rule="evenodd" class="s0" d="m40.25 0.09l53.41 9.98c2.88 0.54 4.78 3.31 4.24 6.18l-10.85 58.11c-0.54 2.88-3.31 4.77-6.19 4.24l-53.41-9.98c-2.88-0.54-4.78-3.31-4.24-6.18l10.85-58.11c0.54-2.88 3.31-4.77 6.19-4.24z"/>
			<g>
				<path class="s0" d="m141.55 111.57h-23.87v-105.97h23.87v105.98zm-22.88-1h21.87v-103.97h-21.87v103.98z"/>
				<path class="s0" d="m255.13 111.57h-30.22l-20.38-35.19h-0.89l-20.38 35.19h-30.21l34.32-55.63-31.4-50.35h29.93l17.74 31.38h0.88l17.74-31.38h29.93l-31.4 50.35 34.32 55.63zm-29.64-1h27.85l-33.71-54.63 30.77-49.35h-27.54l-17.74 31.38h-2.05l-17.74-31.38h-27.54l30.77 49.35-33.71 54.63h27.85l20.38-35.19h2.04c0 0 20.38 35.19 20.37 35.19z"/>
				<path class="s0" d="m267.13 6.1h22.87v104.98h-22.87z"/>
				<path class="s0" d="m311.12 6.1h22.87v104.98h-22.87z"/>
				<path class="s0" d="m403.77 113.92c-7.85 0-15.26-1.44-22.04-4.29-6.77-2.84-12.72-6.8-17.68-11.76-4.96-4.96-8.92-10.86-11.76-17.53-2.85-6.67-4.29-13.99-4.29-21.75 0-7.76 1.44-15.08 4.29-21.75 2.84-6.67 6.8-12.57 11.76-17.53 4.96-4.96 10.91-8.91 17.68-11.76 6.78-2.85 14.19-4.29 22.04-4.29 8.63 0 16.23 1.5 22.57 4.45 6.33 2.94 12.18 7.27 17.38 12.87l0.33 0.36-16.71 16.25-0.35-0.4c-2.69-3.07-5.95-5.67-9.69-7.74-3.72-2.05-8.23-3.09-13.39-3.09-4.5 0-8.76 0.78-12.64 2.31-3.88 1.53-7.3 3.76-10.17 6.63-2.87 2.87-5.15 6.35-6.78 10.32-1.63 3.97-2.46 8.47-2.46 13.37 0 4.9 0.83 9.4 2.46 13.37 1.63 3.97 3.91 7.44 6.78 10.32 2.87 2.87 6.29 5.1 10.17 6.63 3.88 1.53 8.13 2.31 12.64 2.31 5.46 0 10.27-1.11 14.28-3.31 4.03-2.2 7.72-5.42 10.99-9.55l0.34-0.43 17.01 16.09-0.3 0.36c-10.8 12.96-25.09 19.53-42.46 19.53zm0-109.67c-7.71 0-15 1.42-21.65 4.21-6.65 2.8-12.49 6.68-17.36 11.55-4.87 4.87-8.76 10.66-11.55 17.22-2.8 6.55-4.21 13.73-4.21 21.36 0 7.63 1.42 14.81 4.21 21.36 2.79 6.55 6.68 12.35 11.55 17.22 4.87 4.87 10.71 8.75 17.36 11.55 6.65 2.8 13.94 4.21 21.65 4.21 16.9 0 30.83-6.33 41.39-18.81l-15.54-14.7c-3.27 4.03-6.95 7.19-10.95 9.38-4.16 2.28-9.12 3.43-14.76 3.43-4.64 0-9.02-0.8-13.01-2.38-4-1.58-7.54-3.89-10.51-6.86-2.97-2.97-5.32-6.55-7-10.65-1.68-4.09-2.53-8.72-2.53-13.75 0-5.03 0.85-9.66 2.53-13.75 1.68-4.1 4.03-7.68 7-10.65 2.97-2.97 6.5-5.27 10.51-6.86 4-1.58 8.38-2.38 13.01-2.38 5.34 0 10 1.08 13.88 3.21 3.68 2.03 6.91 4.57 9.61 7.56l15.25-14.83c-5.03-5.33-10.66-9.46-16.74-12.29-6.21-2.89-13.66-4.35-22.14-4.35z"/>
			</g>
		</g>
	</g>
</svg>