<svg version="1.2" xmlns="http://www.w3.org/2000/svg" viewBox="0 0 467 467" width="513" height="513">
	<defs>
		<linearGradient id="g1" x2="1" gradientUnits="userSpaceOnUse" gradientTransform="matrix(444.4,135.25,-135.25,444.4,19.77,168.25)">
			<stop offset="0" stop-color="#0b2206"/>
			<stop offset=".48" stop-color="#103607"/>
			<stop offset=".94" stop-color="#0d2c06"/>
		</linearGradient>
	</defs>
	<style>
		.s0 { fill: url(#g1) } 
		.s1 { fill: #f2f3f3 } 
	</style>
	<g id="Layer_1-2">
		<g>
			<path fill-rule="evenodd" class="s0" d="m233.21 466.42c-128.97 0-233.21-104.24-233.21-233.21 0-128.97 104.24-233.21 233.21-233.21 128.97 0 233.21 104.24 233.21 233.21 0 128.97-104.24 233.21-233.21 233.21z"/>
			<g>
				<path fill-rule="evenodd" class="s1" d="m158.71 179.5l77.48-5.2c8.94-0.6 16.68 6.16 17.28 15.1l8.26 123.13c0.6 8.95-6.16 16.68-15.1 17.28l-77.49 5.2c-8.94 0.6-16.68-6.16-17.28-15.1l-8.26-123.13c-0.6-8.95 6.16-16.68 15.11-17.28z"/>
				<path class="s1" d="m154.55 351.48c-3.06 0-6-1.11-8.33-3.13-2.54-2.23-4.07-5.32-4.31-8.69l-8.88-132.38c-0.46-6.99 4.83-13.05 11.79-13.51l86.75-5.82c3.37-0.21 6.64 0.89 9.19 3.1 2.54 2.23 4.07 5.32 4.31 8.69l8.88 132.38c0.22 3.37-0.88 6.65-3.09 9.19-2.23 2.54-5.33 4.07-8.7 4.32l-86.75 5.82c-0.27 0-0.58 0-0.86 0.03zm77.91-161.38q-0.38 0-0.71 0l-86.75 5.82c-5.79 0.39-10.17 5.39-9.77 11.17l8.88 132.38c0.4 5.79 5.42 10.14 11.18 9.77l86.75-5.82c2.79-0.18 5.36-1.44 7.2-3.55 1.83-2.11 2.75-4.81 2.57-7.59l-8.88-132.38c-0.18-2.79-1.44-5.36-3.55-7.2-1.93-1.68-4.35-2.6-6.89-2.6z"/>
				<path class="s1" d="m293.21 286.28c-0.79 0-1.56-0.06-2.36-0.21l-116.82-21.84c-3.34-0.61-6.22-2.51-8.15-5.29-1.93-2.79-2.63-6.16-1.99-9.5l23.74-127.11c1.28-6.86 7.93-11.42 14.79-10.14l116.82 21.84c6.86 1.28 11.42 7.93 10.14 14.79l-23.74 127.11c-0.61 3.34-2.51 6.22-5.29 8.15-2.15 1.47-4.6 2.23-7.14 2.23zm-93.12-172.09c-4.96 0-9.37 3.52-10.32 8.57l-23.73 127.11c-0.52 2.76 0.06 5.55 1.65 7.87 1.59 2.33 3.98 3.86 6.74 4.38l116.82 21.84c2.76 0.52 5.54-0.07 7.87-1.66 2.33-1.59 3.86-3.98 4.38-6.74l23.73-127.11c1.07-5.69-2.69-11.18-8.39-12.25l-116.82-21.83q-0.97-0.18-1.93-0.18z"/>
				<path fill-rule="evenodd" class="s1" d="m225.64 100.28l107.7 20.11c8.81 1.65 14.62 10.13 12.98 18.94l-22.04 117.97c-1.64 8.81-10.12 14.62-18.93 12.97l-107.71-20.12c-8.81-1.64-14.62-10.12-12.97-18.93l22.03-117.97c1.65-8.81 10.13-14.62 18.94-12.97z"/>
			</g>
		</g>
	</g>
</svg>